<svg xmlns="http://www.w3.org/2000/svg" xmlns:xlink="http://www.w3.org/1999/xlink" width="32" height="32" viewBox="0 0 32 32"><defs><style>.a{clip-path:url(#b);}.b{fill:#fff;}.c{fill:rgba(255,255,255,0);}</style><clipPath id="b"><rect width="32" height="32"/></clipPath></defs><g id="a" class="a"><rect class="c" width="32" height="32"/><path class="b" d="M1108,1079a15,15,0,1,1,10.607-4.394A14.9,14.9,0,0,1,1108,1079Zm-13-14c0,6.617,5.832,12,13,12s13-5.383,13-12h-7.083a6,6,0,0,1-11.835,0Zm13-4.749a3.75,3.75,0,1,0,3.75,3.749A3.754,3.754,0,0,0,1108,1060.25Zm0-9.25c-7.168,0-13,5.383-13,12h7.082a6,6,0,0,1,11.835,0H1121a11.481,11.481,0,0,0-3.812-8.482A13.48,13.48,0,0,0,1108,1051Z" transform="translate(-1092.001 -1047.999)"/></g></svg>